<?xml version="1.0" encoding="UTF-8"?>
<svg id="Layer_1" xmlns="http://www.w3.org/2000/svg" baseProfile="tiny" version="1.2" viewBox="0 0 200 200">
  <!-- Generator: Adobe Illustrator 29.0.0, SVG Export Plug-In . SVG Version: 2.1.0 Build 186)  -->
  <path d="M5.96,109.15"/>
  <g>
    <path d="M158.02,89.93h30.27c3.55,0,6.42,2.88,6.42,6.42v27.28c0,3.55-2.88,6.42-6.42,6.42h-29.34c-4.64,0-7.75-4.77-5.87-9.02h0c1.03-2.32,3.33-3.82,5.87-3.82h16.53c3.72,0,6.66-3.15,6.41-6.87l-.33-4.69c-.23-3.37-3.03-5.98-6.41-5.98h-21.2" fill="#ed1c24"/>
    <path d="M79.07,79.72c0,29.01-14.63,54.55-36.78,69.34C19.92,133.54,5.28,107.65,5.28,78.36c0-.95.01-1.89.06-2.84h73.62c.08,1.39.11,2.79.11,4.2Z" fill="#ffcd03"/>
    <path d="M177.37,78.36c0,47.53-38.52,86.04-86.04,86.04-18.22,0-35.12-5.67-49.03-15.34,22.15-14.79,36.78-40.33,36.78-69.34,0-1.4-.03-2.81-.11-4.2h98.35c.04.94.06,1.88.06,2.84Z" fill="#ed1c24"/>
    <circle cx="36.35" cy="49.7" r="14.1" fill="#272c6e"/>
    <circle cx="139.75" cy="49.7" r="14.1" fill="#272c6e"/>
  </g>
</svg>