<?xml version="1.0" encoding="UTF-8"?>
<svg id="Layer_1" xmlns="http://www.w3.org/2000/svg" baseProfile="tiny" version="1.2" viewBox="0 0 200 200">
  <!-- Generator: Adobe Illustrator 29.0.0, SVG Export Plug-In . SVG Version: 2.1.0 Build 186)  -->
  <path d="M20.23,90.13h-7.73v-1.64h17.3v1.64h-7.76v21.38h-1.81v-21.38Z" fill="#231f20"/>
  <path d="M35.04,100.76v10.75h-1.81v-23.02h8.25c4.54,0,6.94,2.43,6.94,6.05,0,2.93-1.74,4.83-4.31,5.39,2.37.56,3.95,2.1,3.95,6.02v.89c0,1.61-.13,3.78.3,4.67h-1.81c-.43-.99-.33-2.83-.33-4.8v-.59c0-3.78-1.12-5.36-5.52-5.36h-5.66ZM35.04,99.11h5.56c4.04,0,5.92-1.51,5.92-4.54,0-2.83-1.84-4.44-5.42-4.44h-6.05v8.98Z" fill="#231f20"/>
  <path d="M55.83,88.49v23.02h-1.78v-23.02h1.78Z" fill="#231f20"/>
  <path d="M88.2,105.36c-1.08,3.65-3.78,6.41-8.65,6.41-6.61,0-10.09-5.26-10.09-11.74s3.42-11.87,10.13-11.87c4.97,0,7.89,2.76,8.65,6.61h-1.78c-1.05-2.99-2.99-4.97-6.97-4.97-5.72,0-8.12,5.23-8.12,10.19s2.37,10.13,8.25,10.13c3.75,0,5.66-1.94,6.81-4.77h1.78Z" fill="#231f20"/>
  <path d="M112.55,99.83c0,6.28-3.36,12-10.46,12-6.48,0-10.26-5.23-10.26-11.84s3.65-11.84,10.49-11.84c6.31,0,10.23,4.97,10.23,11.67ZM93.74,99.9c0,5.3,2.93,10.29,8.45,10.29,5.95,0,8.45-4.87,8.45-10.33s-2.83-10.06-8.39-10.06c-5.92,0-8.52,4.9-8.52,10.09Z" fill="#231f20"/>
  <path d="M117.62,88.49h13.94v1.64h-12.17v8.68h11.41v1.64h-11.41v11.05h-1.78v-23.02Z" fill="#231f20"/>
  <path d="M135.65,88.49h13.94v1.64h-12.17v8.68h11.41v1.64h-11.41v11.05h-1.78v-23.02Z" fill="#231f20"/>
  <path d="M167.2,100.2h-11.74v9.67h12.86l-.26,1.64h-14.37v-23.02h14.11v1.64h-12.33v8.42h11.74v1.64Z" fill="#231f20"/>
  <path d="M186.38,100.2h-11.74v9.67h12.86l-.26,1.64h-14.37v-23.02h14.11v1.64h-12.33v8.42h11.74v1.64Z" fill="#231f20"/>
</svg>